<?xml version="1.0" standalone="no"?>
<!DOCTYPE svg PUBLIC "-//W3C//DTD SVG 20010904//EN"
 "http://www.w3.org/TR/2001/REC-SVG-20010904/DTD/svg10.dtd">
<svg version="1.0" xmlns="http://www.w3.org/2000/svg"
 width="406.000000pt" height="68.000000pt" viewBox="0 0 406.000000 68.000000"
 preserveAspectRatio="xMidYMid meet">

<g transform="translate(0.000000,68.000000) scale(0.100000,-0.100000)"
fill="#000000" stroke="none">
<path d="M332 666 c-49 -16 -85 -38 -124 -74 -23 -21 -38 -25 -87 -26 -60 -1
-90 -16 -112 -57 -8 -15 -4 -16 30 -12 22 3 41 1 45 -5 4 -6 -3 -39 -15 -74
-53 -159 12 -317 160 -386 98 -45 241 -29 315 36 28 25 56 91 56 135 0 30 -5
39 -22 46 -34 13 -55 -3 -61 -49 -15 -112 -128 -164 -215 -100 -37 27 -43 40
-52 105 l-7 50 -2 -47 c0 -26 4 -59 10 -75 14 -37 57 -82 94 -99 l30 -13 -28
-1 c-87 -1 -177 100 -177 200 0 63 88 185 120 165 14 -8 13 -38 -2 -53 -9 -9
-7 -12 11 -12 35 0 91 61 91 99 0 27 5 32 49 48 43 15 47 19 33 29 -14 11 -10
12 23 7 75 -10 118 59 46 73 -22 5 -30 13 -35 35 -10 54 -94 80 -174 55z m106
-85 c3 -10 0 -12 -12 -8 -21 8 -21 -9 0 -21 12 -7 13 -11 5 -16 -25 -16 -55
37 -34 58 11 10 36 3 41 -13z"/>
<path d="M1708 547 c-114 -22 -158 -35 -158 -45 0 -11 10 -12 50 -7 l50 7 0
-46 0 -46 -50 0 c-38 0 -50 -4 -50 -15 0 -11 11 -15 36 -15 29 0 34 -3 30 -17
-12 -39 -56 -236 -56 -249 0 -8 9 -14 19 -14 19 0 20 3 58 180 6 27 9 10 13
-70 l5 -105 63 -3 62 -3 0 106 c0 63 4 105 10 105 6 0 10 -6 10 -14 0 -8 9
-55 21 -105 17 -76 24 -91 40 -91 24 0 24 -1 -6 128 -14 59 -27 117 -30 130
-5 19 -1 22 25 22 19 0 30 5 30 14 0 11 -14 16 -47 18 l-48 3 -3 56 c-3 61 4
69 71 69 20 0 27 5 27 20 0 11 -3 20 -7 19 -5 0 -79 -15 -165 -32z"/>
<path d="M1920 485 l0 -95 216 0 217 0 -6 60 c-10 113 -54 140 -199 120 -46
-7 -86 -14 -90 -16 -4 -3 -8 2 -8 10 0 13 -13 16 -65 16 l-65 0 0 -95z m303
23 c9 -11 17 -35 17 -54 l0 -34 -95 0 -95 0 0 44 c0 50 3 54 62 66 55 11 89 4
111 -22z"/>
<path d="M2855 533 l-37 -48 58 -3 c44 -2 61 1 70 12 9 13 35 16 138 16 105 0
126 2 126 15 0 12 -20 15 -117 15 -91 0 -114 3 -105 12 22 22 13 28 -43 28
-53 0 -55 -1 -90 -47z"/>
<path d="M3455 554 c-164 -32 -165 -32 -165 -50 0 -10 6 -14 18 -11 9 3 83 18
165 32 105 20 147 31 147 41 0 18 -20 17 -165 -12z"/>
<path d="M819 510 c-30 -53 -37 -59 -66 -60 -23 0 -33 -5 -33 -15 0 -11 11
-15 35 -15 l36 0 -3 -67 c-3 -66 -3 -67 -35 -75 -19 -5 -33 -15 -33 -23 0 -18
-3 -17 38 -6 l33 10 -3 -67 -3 -67 -32 -3 c-18 -2 -33 -7 -33 -13 0 -10 169
-13 194 -3 13 5 16 24 16 104 l0 97 32 9 c47 14 50 37 4 29 l-36 -7 0 41 c0
40 1 41 35 41 24 0 35 5 35 15 0 10 -11 15 -35 15 l-35 0 0 60 0 60 -38 0
c-37 0 -40 -3 -73 -60z"/>
<path d="M1056 537 c-24 -32 -26 -41 -26 -145 l0 -112 220 0 c189 0 220 2 220
15 0 11 -12 15 -50 15 -47 0 -50 2 -50 25 0 23 3 25 51 25 66 0 62 24 -4 28
-39 3 -47 6 -47 23 0 16 7 19 50 19 38 0 50 4 50 15 0 11 -12 15 -50 15 -47 0
-50 2 -50 25 0 23 3 25 50 25 38 0 50 4 50 15 0 11 -12 15 -50 15 -38 0 -50 4
-50 15 0 12 -13 15 -55 15 -42 0 -55 -3 -55 -15 0 -12 -13 -15 -56 -15 -49 0
-55 2 -44 15 11 13 6 15 -33 15 -40 0 -49 -4 -71 -33z m204 -52 c0 -24 -3 -25
-55 -25 -52 0 -55 1 -55 25 0 24 3 25 55 25 52 0 55 -1 55 -25z m0 -75 c0 -18
-7 -20 -55 -20 -48 0 -55 2 -55 20 0 18 7 20 55 20 48 0 55 -2 55 -20z m0 -75
c0 -24 -3 -25 -55 -25 -52 0 -55 1 -55 25 0 24 3 25 55 25 52 0 55 -1 55 -25z"/>
<path d="M2530 555 c0 -12 17 -15 90 -15 73 0 90 3 90 15 0 12 -17 15 -90 15
-73 0 -90 -3 -90 -15z"/>
<path d="M3660 545 c0 -13 29 -15 200 -15 171 0 200 2 200 15 0 13 -29 15
-200 15 -171 0 -200 -2 -200 -15z"/>
<path d="M2440 490 c0 -5 17 -10 38 -10 21 0 41 -2 44 -5 2 -3 -13 -80 -34
-172 -21 -93 -38 -174 -38 -180 0 -9 18 -13 58 -13 l57 0 40 182 40 183 73 3
c39 2 72 7 72 12 0 6 -70 10 -175 10 -110 0 -175 -4 -175 -10z"/>
<path d="M3435 431 c-113 -22 -141 -31 -143 -45 -3 -13 1 -17 15 -13 10 3 33
8 51 12 l32 7 0 -141 0 -141 70 0 70 0 0 154 0 154 45 6 c29 5 45 12 45 22 0
19 -19 17 -185 -15z"/>
<path d="M2650 280 c0 -143 -1 -150 -20 -150 -11 0 -20 -5 -20 -10 0 -7 30
-10 83 -8 l82 3 3 158 3 157 -66 0 -65 0 0 -150z"/>
<path d="M2842 273 l3 -158 103 -3 c65 -2 102 1 102 8 0 5 -18 10 -40 10 l-40
0 0 77 0 78 93 -93 c75 -74 98 -92 122 -92 29 0 27 2 -48 78 -42 42 -77 81
-77 85 0 4 18 7 41 7 31 0 47 6 70 29 42 42 37 51 -25 51 -51 0 -56 -2 -76
-35 -12 -19 -25 -35 -30 -35 -19 0 -70 72 -70 100 l0 30 120 0 c73 0 120 4
120 10 0 6 -68 10 -185 10 l-186 0 3 -157z"/>
<path d="M3660 415 c0 -12 17 -15 95 -15 l95 0 0 -135 0 -135 -80 0 c-64 0
-80 -3 -80 -15 0 -13 21 -15 131 -15 72 0 139 5 150 10 17 10 19 23 19 150 l0
140 35 0 c24 0 35 5 35 15 0 13 -29 15 -200 15 -171 0 -200 -2 -200 -15z"/>
<path d="M1920 335 c0 -12 15 -15 75 -15 l75 0 0 -40 0 -40 -75 0 c-60 0 -75
-3 -75 -15 0 -12 15 -15 76 -15 l75 0 -3 -37 -3 -38 -72 -3 c-56 -2 -73 -6
-73 -17 0 -13 33 -15 210 -15 180 0 210 2 210 15 0 12 -14 15 -70 15 l-70 0 0
40 0 40 70 0 c56 0 70 3 70 15 0 12 -14 15 -70 15 l-70 0 0 40 0 40 70 0 c56
0 70 3 70 15 0 13 -30 15 -210 15 -180 0 -210 -2 -210 -15z"/>
<path d="M1030 235 c0 -8 9 -15 20 -15 24 0 24 5 1 -63 l-20 -57 59 0 58 0 19
58 20 57 72 3 72 3 -7 -25 c-4 -18 -1 -27 15 -36 13 -6 21 -21 21 -35 0 -24 3
-25 55 -25 l55 0 0 35 c0 21 -7 41 -19 52 -14 13 -17 23 -11 33 5 8 10 18 10
23 0 4 -94 7 -210 7 -180 0 -210 -2 -210 -15z"/>
</g>
</svg>
